<mxfile host="Electron" modified="2023-05-30T13:37:12.395Z" agent="Mozilla/5.0 (X11; Linux x86_64) AppleWebKit/537.36 (KHTML, like Gecko) draw.io/21.2.8 Chrome/112.0.5615.165 Electron/24.2.0 Safari/537.36" etag="DHoJXeugwwyrSe7W25_M" version="21.2.8" type="device">
  <diagram name="第 1 页" id="EdE_sk0UwNKMecVUaQF3">
    <mxGraphModel dx="1421" dy="877" grid="1" gridSize="10" guides="1" tooltips="1" connect="1" arrows="1" fold="1" page="1" pageScale="1" pageWidth="827" pageHeight="1169" math="0" shadow="0">
      <root>
        <mxCell id="0" />
        <mxCell id="1" parent="0" />
        <mxCell id="JPIShA4xRs8waYWW_iXh-2" value="&lt;p style=&quot;line-height: 200%;&quot;&gt;&lt;b style=&quot;&quot;&gt;&lt;font style=&quot;font-size: 20px;&quot; color=&quot;#ff0000&quot;&gt;ROS2组成架构&lt;/font&gt;&lt;/b&gt;&lt;/p&gt;&lt;p style=&quot;line-height: 200%;&quot;&gt;&lt;b style=&quot;font-size: 18px;&quot;&gt;&lt;font color=&quot;#ff0000&quot;&gt;|-- ROS2设备1&lt;br&gt;|-- ROS2设备2  &lt;br&gt;|-- ROS2设备3&lt;br&gt;  &lt;span style=&quot;white-space: pre;&quot;&gt;&lt;span style=&quot;white-space: pre;&quot;&gt;	&lt;/span&gt; &lt;/span&gt;|-- 工作空间1  &lt;br&gt;  &lt;span style=&quot;white-space: pre;&quot;&gt;&lt;span style=&quot;white-space: pre;&quot;&gt;	&lt;/span&gt; &lt;/span&gt;|-- 工作空间2&lt;br&gt;  &lt;span style=&quot;white-space: pre;&quot;&gt; &lt;span style=&quot;white-space: pre;&quot;&gt;	&lt;/span&gt;&lt;/span&gt;|-- 工作空间3&lt;br&gt;    &lt;span style=&quot;white-space: pre;&quot;&gt; &lt;span style=&quot;white-space: pre;&quot;&gt;	&lt;/span&gt;&lt;span style=&quot;white-space: pre;&quot;&gt;	&lt;/span&gt;&lt;/span&gt;&lt;span style=&quot;white-space: pre;&quot;&gt; &lt;/span&gt;|-- 功能包1&lt;br&gt;    &lt;span style=&quot;white-space: pre;&quot;&gt; &lt;/span&gt;&lt;span style=&quot;white-space: pre;&quot;&gt; &lt;span style=&quot;white-space: pre;&quot;&gt;	&lt;/span&gt;&lt;span style=&quot;white-space: pre;&quot;&gt;	&lt;/span&gt;&lt;/span&gt;|-- 功能包2&lt;br&gt;    &lt;span style=&quot;white-space: pre;&quot;&gt; &lt;/span&gt;&lt;span style=&quot;white-space: pre;&quot;&gt; &lt;span style=&quot;white-space: pre;&quot;&gt;	&lt;/span&gt;&lt;span style=&quot;white-space: pre;&quot;&gt;	&lt;/span&gt;&lt;/span&gt;|-- 功能包3&lt;br&gt;      &lt;span style=&quot;white-space: pre;&quot;&gt; &lt;/span&gt;&lt;span style=&quot;white-space: pre;&quot;&gt; &lt;span style=&quot;white-space: pre;&quot;&gt;	&lt;/span&gt;&lt;span style=&quot;white-space: pre;&quot;&gt;	&lt;/span&gt;&lt;span style=&quot;white-space: pre;&quot;&gt;	&lt;/span&gt;&lt;/span&gt;&lt;span style=&quot;white-space: pre;&quot;&gt; &lt;/span&gt;|-- 节点1&lt;br&gt;      &lt;span style=&quot;white-space: pre;&quot;&gt; &lt;/span&gt;&lt;span style=&quot;white-space: pre;&quot;&gt; &lt;span style=&quot;white-space: pre;&quot;&gt;	&lt;/span&gt;&lt;span style=&quot;white-space: pre;&quot;&gt;	&lt;/span&gt;&lt;span style=&quot;white-space: pre;&quot;&gt;	&lt;/span&gt;&lt;/span&gt;&lt;span style=&quot;white-space: pre;&quot;&gt; &lt;/span&gt;|--节点2&lt;br&gt;      &lt;span style=&quot;white-space: pre;&quot;&gt; &lt;/span&gt;&lt;span style=&quot;white-space: pre;&quot;&gt; &lt;span style=&quot;white-space: pre;&quot;&gt;	&lt;/span&gt;&lt;span style=&quot;white-space: pre;&quot;&gt;	&lt;/span&gt;&lt;span style=&quot;white-space: pre;&quot;&gt;	&lt;/span&gt;&lt;/span&gt;&lt;span style=&quot;white-space: pre;&quot;&gt; &lt;/span&gt;|--节点3&lt;br&gt;        &lt;span style=&quot;white-space: pre;&quot;&gt; &lt;/span&gt;&lt;span style=&quot;white-space: pre;&quot;&gt; &lt;/span&gt;&lt;span style=&quot;white-space: pre;&quot;&gt; &lt;span style=&quot;white-space: pre;&quot;&gt;	&lt;/span&gt;&lt;span style=&quot;white-space: pre;&quot;&gt;	&lt;/span&gt;&lt;span style=&quot;white-space: pre;&quot;&gt;	&lt;/span&gt;&lt;span style=&quot;white-space: pre;&quot;&gt;	&lt;/span&gt;&lt;/span&gt;&lt;span style=&quot;white-space: pre;&quot;&gt; &lt;/span&gt;|-- 话题1&lt;br&gt;        &lt;span style=&quot;white-space: pre;&quot;&gt; &lt;/span&gt;&lt;span style=&quot;white-space: pre;&quot;&gt; &lt;/span&gt;&lt;span style=&quot;white-space: pre;&quot;&gt; &lt;span style=&quot;white-space: pre;&quot;&gt;	&lt;/span&gt;&lt;span style=&quot;white-space: pre;&quot;&gt;	&lt;/span&gt;&lt;span style=&quot;white-space: pre;&quot;&gt;	&lt;/span&gt;&lt;span style=&quot;white-space: pre;&quot;&gt;	&lt;/span&gt;&lt;/span&gt;&lt;span style=&quot;white-space: pre;&quot;&gt; &lt;/span&gt;|-- 话题2&lt;/font&gt;&lt;/b&gt;&lt;/p&gt;" style="text;whiteSpace=wrap;html=1;" parent="1" vertex="1">
          <mxGeometry x="145" y="60" width="310" height="450" as="geometry" />
        </mxCell>
        <mxCell id="JPIShA4xRs8waYWW_iXh-5" style="edgeStyle=orthogonalEdgeStyle;rounded=0;orthogonalLoop=1;jettySize=auto;html=1;exitX=1;exitY=0.25;exitDx=0;exitDy=0;entryX=0;entryY=0.25;entryDx=0;entryDy=0;strokeWidth=3;" parent="1" source="JPIShA4xRs8waYWW_iXh-3" target="JPIShA4xRs8waYWW_iXh-4" edge="1">
          <mxGeometry relative="1" as="geometry" />
        </mxCell>
        <mxCell id="JPIShA4xRs8waYWW_iXh-8" style="edgeStyle=orthogonalEdgeStyle;rounded=0;orthogonalLoop=1;jettySize=auto;html=1;exitX=0.25;exitY=1;exitDx=0;exitDy=0;entryX=0.072;entryY=-0.004;entryDx=0;entryDy=0;entryPerimeter=0;strokeWidth=3;startArrow=classic;startFill=1;endArrow=none;endFill=0;" parent="1" source="JPIShA4xRs8waYWW_iXh-3" target="JPIShA4xRs8waYWW_iXh-7" edge="1">
          <mxGeometry relative="1" as="geometry" />
        </mxCell>
        <mxCell id="JPIShA4xRs8waYWW_iXh-9" style="edgeStyle=orthogonalEdgeStyle;rounded=0;orthogonalLoop=1;jettySize=auto;html=1;exitX=0.75;exitY=1;exitDx=0;exitDy=0;entryX=0.21;entryY=-0.004;entryDx=0;entryDy=0;entryPerimeter=0;strokeWidth=3;startArrow=none;startFill=0;" parent="1" source="JPIShA4xRs8waYWW_iXh-3" target="JPIShA4xRs8waYWW_iXh-7" edge="1">
          <mxGeometry relative="1" as="geometry" />
        </mxCell>
        <mxCell id="JPIShA4xRs8waYWW_iXh-3" value="&lt;b&gt;&lt;font style=&quot;font-size: 18px;&quot;&gt;主机1&lt;/font&gt;&lt;/b&gt;" style="rounded=1;whiteSpace=wrap;html=1;shadow=1;fillColor=#d5e8d4;strokeColor=#82b366;" parent="1" vertex="1">
          <mxGeometry x="414" y="80" width="120" height="60" as="geometry" />
        </mxCell>
        <mxCell id="JPIShA4xRs8waYWW_iXh-6" style="edgeStyle=orthogonalEdgeStyle;rounded=0;orthogonalLoop=1;jettySize=auto;html=1;exitX=0;exitY=0.75;exitDx=0;exitDy=0;entryX=1;entryY=0.75;entryDx=0;entryDy=0;strokeWidth=3;" parent="1" source="JPIShA4xRs8waYWW_iXh-4" target="JPIShA4xRs8waYWW_iXh-3" edge="1">
          <mxGeometry relative="1" as="geometry" />
        </mxCell>
        <mxCell id="JPIShA4xRs8waYWW_iXh-11" style="edgeStyle=orthogonalEdgeStyle;rounded=0;orthogonalLoop=1;jettySize=auto;html=1;exitX=0.25;exitY=1;exitDx=0;exitDy=0;entryX=0.789;entryY=-0.011;entryDx=0;entryDy=0;entryPerimeter=0;strokeWidth=3;startArrow=classic;startFill=1;endArrow=none;endFill=0;" parent="1" source="JPIShA4xRs8waYWW_iXh-4" target="JPIShA4xRs8waYWW_iXh-7" edge="1">
          <mxGeometry relative="1" as="geometry" />
        </mxCell>
        <mxCell id="JPIShA4xRs8waYWW_iXh-12" style="edgeStyle=orthogonalEdgeStyle;rounded=0;orthogonalLoop=1;jettySize=auto;html=1;exitX=0.75;exitY=1;exitDx=0;exitDy=0;entryX=0.93;entryY=-0.011;entryDx=0;entryDy=0;entryPerimeter=0;strokeWidth=3;" parent="1" source="JPIShA4xRs8waYWW_iXh-4" target="JPIShA4xRs8waYWW_iXh-7" edge="1">
          <mxGeometry relative="1" as="geometry" />
        </mxCell>
        <mxCell id="JPIShA4xRs8waYWW_iXh-4" value="&lt;b&gt;&lt;font style=&quot;font-size: 18px;&quot;&gt;主机2&lt;/font&gt;&lt;/b&gt;" style="rounded=1;whiteSpace=wrap;html=1;fillColor=#d5e8d4;strokeColor=#82b366;shadow=1;" parent="1" vertex="1">
          <mxGeometry x="720" y="80" width="120" height="60" as="geometry" />
        </mxCell>
        <mxCell id="JPIShA4xRs8waYWW_iXh-7" value="" style="rounded=0;whiteSpace=wrap;html=1;shadow=1;fillColor=#f5f5f5;fontColor=#333333;strokeColor=#666666;" parent="1" vertex="1">
          <mxGeometry x="414" y="220" width="426" height="230" as="geometry" />
        </mxCell>
        <mxCell id="JPIShA4xRs8waYWW_iXh-13" value="&lt;font color=&quot;#ff0000&quot; style=&quot;font-size: 18px;&quot;&gt;通过分布式实现不同&lt;br&gt;ROS2设备之间的通信&lt;/font&gt;" style="text;html=1;strokeColor=none;fillColor=none;align=center;verticalAlign=middle;whiteSpace=wrap;rounded=0;" parent="1" vertex="1">
          <mxGeometry x="535.5" y="160" width="183" height="30" as="geometry" />
        </mxCell>
        <mxCell id="JPIShA4xRs8waYWW_iXh-14" value="" style="rounded=0;whiteSpace=wrap;html=1;fillColor=#fff2cc;strokeColor=#d6b656;shadow=1;" parent="1" vertex="1">
          <mxGeometry x="422" y="270" width="208" height="160" as="geometry" />
        </mxCell>
        <mxCell id="JPIShA4xRs8waYWW_iXh-16" value="" style="rounded=0;whiteSpace=wrap;html=1;fillColor=#fff2cc;strokeColor=#d6b656;shadow=1;" parent="1" vertex="1">
          <mxGeometry x="640" y="270" width="190" height="60" as="geometry" />
        </mxCell>
        <mxCell id="JPIShA4xRs8waYWW_iXh-18" value="" style="rounded=0;whiteSpace=wrap;html=1;fillColor=#fff2cc;strokeColor=#d6b656;shadow=1;" parent="1" vertex="1">
          <mxGeometry x="640" y="370" width="190" height="60" as="geometry" />
        </mxCell>
        <mxCell id="JPIShA4xRs8waYWW_iXh-19" value="&lt;b style=&quot;border-color: var(--border-color); color: rgb(0, 0, 0); font-family: Helvetica; font-size: 12px; font-style: normal; font-variant-ligatures: normal; font-variant-caps: normal; letter-spacing: normal; orphans: 2; text-indent: 0px; text-transform: none; widows: 2; word-spacing: 0px; -webkit-text-stroke-width: 0px; background-color: rgb(251, 251, 251); text-decoration-thickness: initial; text-decoration-style: initial; text-decoration-color: initial;&quot;&gt;&lt;font style=&quot;border-color: var(--border-color); font-size: 18px;&quot;&gt;ws00&lt;/font&gt;&lt;/b&gt;" style="text;whiteSpace=wrap;html=1;align=center;" parent="1" vertex="1">
          <mxGeometry x="462" y="240" width="110" height="40" as="geometry" />
        </mxCell>
        <mxCell id="JPIShA4xRs8waYWW_iXh-20" value="&lt;b style=&quot;border-color: var(--border-color); color: rgb(0, 0, 0); font-family: Helvetica; font-size: 12px; font-style: normal; font-variant-ligatures: normal; font-variant-caps: normal; letter-spacing: normal; orphans: 2; text-indent: 0px; text-transform: none; widows: 2; word-spacing: 0px; -webkit-text-stroke-width: 0px; background-color: rgb(251, 251, 251); text-decoration-thickness: initial; text-decoration-style: initial; text-decoration-color: initial;&quot;&gt;&lt;font style=&quot;border-color: var(--border-color); font-size: 18px;&quot;&gt;ws01&lt;/font&gt;&lt;/b&gt;" style="text;whiteSpace=wrap;html=1;align=center;" parent="1" vertex="1">
          <mxGeometry x="685" y="240" width="100" height="40" as="geometry" />
        </mxCell>
        <mxCell id="JPIShA4xRs8waYWW_iXh-21" value="&lt;b style=&quot;border-color: var(--border-color); color: rgb(0, 0, 0); font-family: Helvetica; font-size: 12px; font-style: normal; font-variant-ligatures: normal; font-variant-caps: normal; letter-spacing: normal; orphans: 2; text-indent: 0px; text-transform: none; widows: 2; word-spacing: 0px; -webkit-text-stroke-width: 0px; background-color: rgb(251, 251, 251); text-decoration-thickness: initial; text-decoration-style: initial; text-decoration-color: initial;&quot;&gt;&lt;font style=&quot;border-color: var(--border-color); font-size: 18px;&quot;&gt;ws02&lt;/font&gt;&lt;/b&gt;" style="text;whiteSpace=wrap;html=1;align=center;" parent="1" vertex="1">
          <mxGeometry x="685" y="340" width="100" height="30" as="geometry" />
        </mxCell>
        <mxCell id="JPIShA4xRs8waYWW_iXh-22" value="" style="rounded=1;whiteSpace=wrap;html=1;fillColor=#e1d5e7;strokeColor=#9673a6;shadow=1;" parent="1" vertex="1">
          <mxGeometry x="430" y="296" width="110" height="50" as="geometry" />
        </mxCell>
        <mxCell id="JPIShA4xRs8waYWW_iXh-23" value="" style="rounded=1;whiteSpace=wrap;html=1;fillColor=#e1d5e7;strokeColor=#9673a6;shadow=1;" parent="1" vertex="1">
          <mxGeometry x="430" y="375" width="110" height="50" as="geometry" />
        </mxCell>
        <mxCell id="JPIShA4xRs8waYWW_iXh-24" value="" style="rounded=1;whiteSpace=wrap;html=1;fillColor=#e1d5e7;strokeColor=#9673a6;shadow=1;" parent="1" vertex="1">
          <mxGeometry x="680" y="275" width="110" height="50" as="geometry" />
        </mxCell>
        <mxCell id="FjRvkg8o0FBUN97brb-A-1" value="&lt;font style=&quot;font-size: 18px;&quot;&gt;&lt;b&gt;ROS2 程序构建时可能遇到的问题&lt;/b&gt;：&lt;br&gt;&lt;div style=&quot;line-height: 200%;&quot;&gt;&lt;span style=&quot;background-color: initial;&quot;&gt;1. 怎么实现分布式架构？&lt;/span&gt;&lt;/div&gt;&lt;div style=&quot;line-height: 200%;&quot;&gt;&lt;span style=&quot;background-color: initial;&quot;&gt;2. 不同工作空间下的功能包重名时会出现什么问题？&lt;/span&gt;&lt;/div&gt;&lt;div style=&quot;line-height: 200%;&quot;&gt;&lt;span style=&quot;background-color: initial;&quot;&gt;3. 怎么管理功能包？&lt;/span&gt;&lt;/div&gt;&lt;div style=&quot;line-height: 200%;&quot;&gt;&lt;span style=&quot;background-color: initial;&quot;&gt;4. 节点重名怎么处理？&lt;/span&gt;&lt;/div&gt;&lt;div style=&quot;line-height: 200%;&quot;&gt;&lt;span style=&quot;background-color: initial;&quot;&gt;5. 话题重名怎么处理？&lt;/span&gt;&lt;/div&gt;&lt;/font&gt;" style="text;html=1;strokeColor=none;fillColor=none;align=left;verticalAlign=middle;whiteSpace=wrap;rounded=0;" vertex="1" parent="1">
          <mxGeometry x="900" y="56" width="420" height="250" as="geometry" />
        </mxCell>
        <mxCell id="FjRvkg8o0FBUN97brb-A-2" value="&lt;b&gt;&lt;font style=&quot;font-size: 16px;&quot;&gt;元功能包&lt;/font&gt;&lt;/b&gt;" style="ellipse;whiteSpace=wrap;html=1;fillColor=#dae8fc;strokeColor=#6c8ebf;" vertex="1" parent="1">
          <mxGeometry x="550" y="295" width="70" height="120" as="geometry" />
        </mxCell>
        <mxCell id="FjRvkg8o0FBUN97brb-A-3" value="&lt;b&gt;&lt;font style=&quot;font-size: 16px;&quot;&gt;p1&lt;/font&gt;&lt;/b&gt;" style="text;html=1;strokeColor=none;fillColor=none;align=center;verticalAlign=middle;whiteSpace=wrap;rounded=0;" vertex="1" parent="1">
          <mxGeometry x="455" y="270" width="60" height="30" as="geometry" />
        </mxCell>
        <mxCell id="FjRvkg8o0FBUN97brb-A-4" value="&lt;b&gt;&lt;font style=&quot;font-size: 16px;&quot;&gt;p2&lt;/font&gt;&lt;/b&gt;" style="text;html=1;strokeColor=none;fillColor=none;align=center;verticalAlign=middle;whiteSpace=wrap;rounded=0;" vertex="1" parent="1">
          <mxGeometry x="455" y="346" width="60" height="30" as="geometry" />
        </mxCell>
        <mxCell id="FjRvkg8o0FBUN97brb-A-6" value="" style="endArrow=none;html=1;rounded=0;entryX=0;entryY=0;entryDx=0;entryDy=0;exitX=0;exitY=1;exitDx=0;exitDy=0;" edge="1" parent="1">
          <mxGeometry width="50" height="50" relative="1" as="geometry">
            <mxPoint x="481" y="299" as="sourcePoint" />
            <mxPoint x="481" y="345" as="targetPoint" />
          </mxGeometry>
        </mxCell>
        <mxCell id="FjRvkg8o0FBUN97brb-A-7" value="" style="endArrow=none;html=1;rounded=0;entryX=0;entryY=0;entryDx=0;entryDy=0;exitX=0;exitY=1;exitDx=0;exitDy=0;" edge="1" parent="1">
          <mxGeometry width="50" height="50" relative="1" as="geometry">
            <mxPoint x="509" y="299" as="sourcePoint" />
            <mxPoint x="509" y="345" as="targetPoint" />
          </mxGeometry>
        </mxCell>
        <mxCell id="FjRvkg8o0FBUN97brb-A-8" value="" style="endArrow=none;html=1;rounded=0;entryX=0;entryY=0;entryDx=0;entryDy=0;exitX=0;exitY=1;exitDx=0;exitDy=0;" edge="1" parent="1">
          <mxGeometry width="50" height="50" relative="1" as="geometry">
            <mxPoint x="485" y="377" as="sourcePoint" />
            <mxPoint x="485" y="423" as="targetPoint" />
          </mxGeometry>
        </mxCell>
        <mxCell id="FjRvkg8o0FBUN97brb-A-9" value="&lt;font style=&quot;font-size: 16px;&quot;&gt;&lt;b&gt;node&lt;/b&gt;&lt;/font&gt;" style="text;html=1;strokeColor=none;fillColor=none;align=center;verticalAlign=middle;whiteSpace=wrap;rounded=0;" vertex="1" parent="1">
          <mxGeometry x="425" y="306" width="60" height="30" as="geometry" />
        </mxCell>
        <mxCell id="FjRvkg8o0FBUN97brb-A-10" value="&lt;b&gt;&lt;font style=&quot;font-size: 16px;&quot;&gt;p1&lt;/font&gt;&lt;/b&gt;" style="text;html=1;strokeColor=none;fillColor=none;align=center;verticalAlign=middle;whiteSpace=wrap;rounded=0;" vertex="1" parent="1">
          <mxGeometry x="780" y="285" width="60" height="30" as="geometry" />
        </mxCell>
        <mxCell id="FjRvkg8o0FBUN97brb-A-11" value="" style="endArrow=none;html=1;rounded=0;entryX=0;entryY=0;entryDx=0;entryDy=0;exitX=0;exitY=1;exitDx=0;exitDy=0;" edge="1" parent="1">
          <mxGeometry width="50" height="50" relative="1" as="geometry">
            <mxPoint x="730" y="277" as="sourcePoint" />
            <mxPoint x="730" y="323" as="targetPoint" />
          </mxGeometry>
        </mxCell>
      </root>
    </mxGraphModel>
  </diagram>
</mxfile>
